<svg xmlns="http://www.w3.org/2000/svg" viewBox="0 0 479.4 140.95"><defs><style>.cls-1{fill:#1d1d1b;}</style></defs><g id="Layer_2" data-name="Layer 2"><g id="Layer_1-2" data-name="Layer 1"><polygon class="cls-1" points="367.4 30.69 338.38 1.97 343.25 0 372.28 28.72 367.4 30.69"/><polygon class="cls-1" points="343.25 30.69 338.38 28.72 367.4 0 372.28 1.97 343.25 30.69"/><path class="cls-1" d="M0,7.39H22.23v61h.6L50.37,38.25H74.63L22.23,94.32v18.84H0ZM31.18,79.21,44,65.39,77,113.16H52.9Z"/><path class="cls-1" d="M78.46,75.66c0-24.51,18.91-39.23,39-39.23,23.1,0,35.27,15.6,35.27,36a64.06,64.06,0,0,1-.93,9.94H94.93V67.44h41.81l-3.5,4.24c0-12-5.23-18.35-15.07-18.35-11,0-18.18,7.44-18.18,22.33C100,91.2,108.45,98,123,98c6.79,0,12.65-1.85,19.29-5.2l7.37,13.38A57.29,57.29,0,0,1,120,115C96.63,115,78.46,100.56,78.46,75.66Z"/><path class="cls-1" d="M160,75.66c0-24.51,18.9-39.23,39-39.23,23.1,0,35.26,15.6,35.26,36a64.06,64.06,0,0,1-.93,9.94H176.47V67.44h41.81l-3.5,4.24c0-12-5.23-18.35-15.07-18.35-11,0-18.18,7.44-18.18,22.33,0,15.54,8.46,22.37,23,22.37,6.8,0,12.66-1.85,19.3-5.2l7.36,13.38A57.26,57.26,0,0,1,201.52,115C178.17,115,160,100.56,160,75.66Z"/><path class="cls-1" d="M244.11,38.25h18.11l1.6,7.61h.57c6-5.51,14.28-9.43,22.31-9.43,18.7,0,30,15,30,38.11,0,25.67-15.71,40.43-32.5,40.43-6.58,0-13.07-2.93-18.41-8.1h-.52l1,12.15V141H244.11ZM294,74.75c0-13.43-4.41-20.12-13.82-20.12-4.75,0-9.14,2-13.82,6.95V91.8a19.41,19.41,0,0,0,12.83,5C287.37,96.77,294,90.26,294,74.75Z"/><polygon class="cls-1" points="356.77 55.66 326.61 55.66 326.61 38.25 379 38.25 379 113.16 356.77 113.16 356.77 55.66"/><path class="cls-1" d="M422.62,82.11V55.66H403.74V39.11l19.87-.86,2.86-22.91h18.38V38.25h31.58V55.66H444.85V81.83c0,11.39,4.81,15.68,15.74,15.68a44.13,44.13,0,0,0,14.79-2.67l4,16.08a81.93,81.93,0,0,1-24.47,4C431.09,115,422.62,101.76,422.62,82.11Z"/></g></g></svg>